# xmcd
#
# Track frame offsets: 
#        150
#        12282
#        25900
#        49052
#        61950
#        78047
#        124217
#        136577
#        149657
#        174722
#        194407
#        218962
#        231867
#        255040
#        264375
#        293370
#        317520
#
# Disc length: 4520 seconds
#
# Revision: 3
# Processed by: cddbd v1.5.2PL0 Copyright (c) Steve Scherf et al.
# Submitted via: ExactAudioCopy v1.3
#
DISCID=e611a611
DTITLE=John Lee Hooker - The Essential
DYEAR=1993
DGENRE=Blues
TTITLE0=Boom, Boom, Boom, Boom
TTITLE1=One Bourbon, One Scotch, One Beer
TTITLE2=Decoration Day
TTITLE3=Back Biters and Syndicators
TTITLE4=Doin' the Shout
TTITLE5=Never Get Out of These Blues Alive
TTITLE6=I'm in the Mood
TTITLE7=Mr Lucky
TTITLE8=I'm Bad Like Jesse James
TTITLE9=Shake it Baby
TTITLE10=Blue Bird
TTITLE11=The Motor City is Burning
TTITLE12=It Serves You Right to Suffer
TTITLE13=Think Twice Before You Go
TTITLE14=House Rent Boogie
TTITLE15=The Waterfront
TTITLE16=Bang, Bang, Bang, Bang
EXTD=YEAR: 1974
EXTT0=
EXTT1=
EXTT2=
EXTT3=
EXTT4=
EXTT5=
EXTT6=
EXTT7=
EXTT8=
EXTT9=
EXTT10=
EXTT11=
EXTT12=
EXTT13=
EXTT14=
EXTT15=
EXTT16=
PLAYORDER=
